<svg version="1.1" xmlns="http://www.w3.org/2000/svg" width="1216" height="832">
<path d="M0 0 C401.28 0 802.56 0 1216 0 C1216 274.56 1216 549.12 1216 832 C814.72 832 413.44 832 0 832 C0 557.44 0 282.88 0 0 Z " fill="#FEFAEC" transform="translate(0,0)"/>
<path d="M0 0 C11.21 9.42 17.82 20.01 19.25 34.75 C20.3 48.57 17.41 60.44 9.25 71.75 C6.81 74.5 6.81 74.5 4.25 76.75 C3.77 77.22 3.3 77.69 2.8 78.17 C-11.2 91.33 -32.17 94.95 -50.7 94.8 C-51.48 94.79 -52.26 94.79 -53.06 94.79 C-54.96 94.78 -56.85 94.76 -58.75 94.75 C-58.74 95.9 -58.74 97.06 -58.73 98.25 C-58.72 102.58 -58.7 106.91 -58.7 111.24 C-58.69 113.1 -58.68 114.97 -58.67 116.83 C-58.55 144.72 -58.55 144.72 -62.06 151.25 C-62.47 152.04 -62.88 152.84 -63.3 153.66 C-65.61 157 -67.92 158.47 -71.75 159.75 C-77.73 160.35 -82.43 159.78 -87.75 156.75 C-93.98 150.87 -95.21 141.84 -95.92 133.66 C-96 132.8 -96.08 131.94 -96.16 131.06 C-97.06 120.45 -97.02 109.83 -96.98 99.19 C-96.98 96.98 -96.98 94.77 -96.98 92.56 C-96.98 87.96 -96.97 83.36 -96.96 78.76 C-96.94 72.93 -96.93 67.09 -96.94 61.25 C-96.94 56.7 -96.93 52.15 -96.92 47.59 C-96.92 45.44 -96.92 43.29 -96.92 41.14 C-96.91 34.34 -96.86 27.55 -96.75 20.75 C-96.74 19.81 -96.72 18.86 -96.71 17.89 C-96.66 15.14 -96.58 12.4 -96.49 9.65 C-96.48 8.84 -96.46 8.03 -96.45 7.19 C-96.23 1.97 -95.18 -1.1 -91.75 -5.25 C-85.33 -9.39 -77.19 -10.32 -69.75 -11.25 C-69.09 -11.34 -68.43 -11.42 -67.75 -11.51 C-45.63 -14.23 -18.68 -13.66 0 0 Z " fill="#020202" transform="translate(566.75,288.25)"/>
<path d="M0 0 C5.42 4.11 10.12 8.1 11.39 15.08 C11.63 18.78 10.99 21.14 9.34 24.45 C6.37 27.82 4.6 28.79 0.16 29.28 C-6.13 29.23 -10.22 26.1 -15.1 22.53 C-23.65 16.31 -31.35 13.71 -41.97 15.07 C-49.61 16.89 -54.66 21.66 -58.97 28.07 C-63.37 36.96 -63.39 47.72 -60.29 57.01 C-57.19 64.46 -53.2 68.53 -45.97 72.07 C-35.34 75.42 -24.77 72.56 -14.97 68.07 C-13.53 67.17 -12.11 66.24 -10.72 65.26 C-6.97 62.72 -3.74 62.34 0.75 62.59 C3.03 63.07 3.03 63.07 6.15 65.14 C8.56 68.9 8.7 70.67 8.03 75.07 C5.53 82.95 0.06 87.8 -6.98 91.77 C-22.09 99.45 -37.57 103.04 -54.22 98.01 C-60.99 95.79 -66.54 92.74 -71.97 88.07 C-73.03 87.22 -73.03 87.22 -74.11 86.34 C-80.4 80.73 -83.62 73.66 -86.97 66.07 C-87.35 65.23 -87.72 64.39 -88.11 63.52 C-92.66 50.67 -91.59 32.3 -85.97 20.07 C-79.22 6.37 -69.88 -2.58 -55.6 -8.36 C-37.65 -13.83 -15.52 -10.06 0 0 Z " fill="#040303" transform="translate(676.97265625,336.92578125)"/>
<path d="M0 0 C8.04 5.06 12.83 11.48 15.53 20.64 C17.26 32.64 15.46 44.48 8.41 54.52 C3.21 60.67 -3.73 64.57 -11.47 66.64 C-14.27 66.85 -16.93 66.97 -19.72 66.95 C-20.47 66.95 -21.22 66.94 -22 66.94 C-31.73 66.72 -39.29 64.45 -46.47 57.64 C-54.31 49.36 -57.12 39.74 -56.93 28.49 C-56.47 18.41 -52.8 12.05 -45.9 4.84 C-33.6 -6.28 -14.45 -7.96 0 0 Z " fill="#050403" transform="translate(515.46875,464.359375)"/>
<path d="M0 0 C3.15 0.09 5.58 0.21 8.12 2.25 C8.72 4.33 8.72 4.33 9.12 6.25 C9.81 5.97 10.5 5.7 11.21 5.41 C12.11 5.05 13.01 4.69 13.94 4.31 C14.83 3.95 15.72 3.59 16.64 3.22 C25.51 -0.26 34.99 0.25 43.75 3.95 C50.98 7.92 53.04 13.91 55.3 21.54 C56.7 27.86 56.58 34.06 56.44 40.5 C56.43 41.8 56.42 43.09 56.41 44.43 C56.15 66.08 56.15 66.08 50.31 72.12 C47.25 73.7 45.52 73.87 42.12 73.25 C36.59 67.72 35.98 63.54 35.91 56.04 C35.89 54.39 35.86 52.73 35.83 51.08 C35.79 48.48 35.75 45.87 35.72 43.27 C35.7 40.76 35.65 38.24 35.6 35.73 C35.6 34.95 35.6 34.18 35.59 33.38 C35.49 28.87 35.01 25.79 32.12 22.25 C27.77 20.8 23.67 20.61 19.12 21.25 C15.25 23.22 12.64 26.19 11.12 30.25 C10.92 32.82 10.82 35.3 10.82 37.87 C10.79 39.38 10.77 40.89 10.74 42.39 C10.71 44.76 10.69 47.13 10.67 49.49 C10.65 51.78 10.61 54.07 10.57 56.37 C10.57 57.07 10.57 57.77 10.57 58.49 C10.45 64.11 9.13 68.24 5.12 72.25 C-0.51 72.89 -0.51 72.89 -2.88 72.25 C-7.11 68.36 -7.71 64.3 -8.12 58.81 C-8.2 57.94 -8.27 57.07 -8.35 56.18 C-9.06 46.24 -9.12 36.27 -9.19 26.31 C-9.2 25.47 -9.21 24.62 -9.22 23.75 C-9.24 21.3 -9.24 18.86 -9.24 16.41 C-9.25 15.68 -9.26 14.94 -9.27 14.19 C-9.21 7.36 -7.59 0.49 0 0 Z " fill="#060505" transform="translate(551.875,457.75)"/>
<path d="M0 0 C7.38 4.76 12.13 10.77 14.14 19.38 C14.74 24.48 14.86 28.77 12.77 33.51 C11.14 35.38 11.14 35.38 9.14 36.38 C6.23 36.47 3.33 36.5 0.42 36.48 C-0.88 36.48 -0.88 36.48 -2.2 36.48 C-4.96 36.47 -7.72 36.46 -10.48 36.45 C-12.35 36.44 -14.22 36.44 -16.09 36.43 C-20.68 36.42 -25.27 36.4 -29.86 36.38 C-27.86 40.72 -26.42 43.47 -22 45.69 C-14.76 48.03 -8.46 46.6 -1.86 43.29 C0.95 42.02 3.12 41.88 6.14 42.38 C8.02 43.51 8.02 43.51 9.14 45.38 C9.71 49.08 9.57 50.76 7.43 53.87 C2.36 59.44 -4.02 62.3 -11.52 62.9 C-22.17 63.32 -31.55 62.61 -39.73 55.13 C-47.51 46.62 -48.46 37.34 -48.27 26.29 C-47.81 17.64 -43.49 10.74 -37.86 4.38 C-35.38 2.62 -35.38 2.62 -32.79 1.13 C-31.94 0.63 -31.08 0.13 -30.2 -0.38 C-21.91 -4.75 -8.35 -4.07 0 0 Z " fill="#060505" transform="translate(713.85546875,463.6171875)"/>
<path d="M0 0 C4 2.38 8.28 5.19 10.41 9.43 C10.98 15.72 10.98 15.72 8.84 18.37 C5.38 19.88 3.16 19.94 -0.59 19.43 C-2.53 18.32 -4.23 17.05 -5.99 15.68 C-10.31 12.33 -14.7 11.94 -20.02 12.05 C-25.29 12.83 -29.15 15.49 -32.29 19.71 C-34.9 25.17 -34.34 31.86 -33.12 37.7 C-31.48 42.2 -28.7 44.21 -24.59 46.43 C-18.46 48.48 -14.09 47.95 -8.41 45.12 C-5.78 43.71 -3.29 42.24 -0.78 40.62 C1.87 39.18 3.43 38.96 6.41 39.43 C8.22 40.5 8.22 40.5 9.41 42.43 C10.24 47.09 9.37 50.08 7.03 54.06 C2.85 59.91 -2.95 62.22 -9.59 64.43 C-21.32 65.61 -32.86 65.85 -42.59 58.43 C-48.42 53.43 -52.99 45.16 -53.8 37.45 C-54.36 24.86 -54.16 15.14 -45.61 5.11 C-32.3 -8.01 -15.78 -8.2 0 0 Z " fill="#050404" transform="translate(439.59375,463.56640625)"/>
<path d="M0 0 C3 1.56 3 1.56 5 4 C4.9 10.26 2.54 13.68 -1.19 18.38 C-2.19 19.69 -3.19 21.01 -4.18 22.32 C-4.91 23.27 -4.91 23.27 -5.65 24.23 C-7.4 26.52 -9.1 28.83 -10.75 31.19 C-11.22 31.84 -11.69 32.49 -12.17 33.17 C-13.14 34.94 -13.14 34.94 -12.92 36.84 C-11.57 40.02 -9.55 42.67 -7.5 45.44 C-6.6 46.69 -5.69 47.93 -4.79 49.18 C-3.42 51.07 -2.04 52.95 -0.65 54.82 C0.62 56.54 1.87 58.27 3.12 60 C3.87 61.01 4.62 62.02 5.38 63.06 C7.21 66.38 7.46 68.27 7 72 C4.7 74.76 3.12 74.98 -0.44 75.5 C-7.72 74.48 -12.08 66.22 -16.31 60.69 C-16.96 59.85 -17.6 59.02 -18.27 58.15 C-19.85 56.11 -21.43 54.05 -23 52 C-26.56 52.44 -26.56 52.44 -29.5 54.34 C-29.9 54.89 -30.3 55.45 -30.72 56.02 C-31.18 56.63 -31.63 57.24 -32.11 57.87 C-32.57 58.51 -33.03 59.15 -33.5 59.81 C-41.25 70.42 -41.25 70.42 -46.35 71.5 C-47.48 71.47 -47.48 71.47 -48.62 71.44 C-49.76 71.44 -49.76 71.44 -50.91 71.43 C-53.56 70.88 -54.47 70.23 -56 68 C-56.6 64.67 -56.17 63.29 -54.42 60.38 C-53.68 59.45 -52.95 58.52 -52.19 57.56 C-51.38 56.52 -50.57 55.48 -49.74 54.41 C-47.83 52.01 -45.88 49.64 -43.92 47.28 C-43.16 46.35 -43.16 46.35 -42.38 45.4 C-41.39 44.19 -40.39 43 -39.37 41.81 C-37.38 39.38 -36.03 37.71 -35.9 34.52 C-37.41 31.07 -39.5 28.17 -41.75 25.19 C-42.66 23.94 -43.57 22.7 -44.48 21.45 C-45.13 20.56 -45.13 20.56 -45.8 19.65 C-51.73 11.5 -51.73 11.5 -52.5 7.19 C-52 5 -52 5 -51 3.19 C-47.69 1.22 -44.65 1.11 -41 2 C-34.46 5.88 -29.78 12.53 -26 19 C-26 19.66 -26 20.32 -26 21 C-25.01 21 -24.02 21 -23 21 C-22.77 20.31 -22.54 19.62 -22.3 18.91 C-20.71 15.35 -18.52 12.43 -16.12 9.38 C-15.69 8.8 -15.26 8.23 -14.81 7.64 C-10.31 1.83 -7.6 -0.93 0 0 Z " fill="#060505" transform="translate(789,456)"/>
<path d="M0 0 C2.76 2.5 2.99 3.92 3.29 7.67 C3.27 9.03 3.24 10.39 3.19 11.75 C3.17 12.8 3.17 12.8 3.15 13.86 C3.11 15.58 3.06 17.29 3 19 C4.18 18.95 5.36 18.91 6.58 18.86 C8.14 18.82 9.69 18.79 11.25 18.75 C12.03 18.72 12.8 18.68 13.61 18.65 C17.41 18.58 19.37 18.55 22.54 20.79 C24 23 24 23 24.06 26.56 C23 30 23 30 20.56 31.88 C19.72 32.25 18.87 32.62 18 33 C17.01 33.5 17.01 33.5 16 34 C13.79 34.07 11.58 34.08 9.38 34.06 C8.19 34.05 7 34.04 5.77 34.04 C4.86 34.02 3.94 34.01 3 34 C3.08 38.08 3.19 42.17 3.31 46.25 C3.35 47.99 3.35 47.99 3.38 49.76 C3.42 50.88 3.45 51.99 3.49 53.14 C3.51 54.17 3.54 55.19 3.57 56.25 C4.06 59.37 4.78 60.78 7 63 C10.29 63.55 10.29 63.55 13.94 63.5 C20.4 63.55 20.4 63.55 23.43 65.82 C25 68 25 68 25.12 71.44 C23.64 76.14 22.03 77.26 18 80 C14.02 81.33 10.36 81.26 6.19 81.31 C5 81.36 5 81.36 3.78 81.4 C-1.64 81.46 -4.74 80.66 -9 77 C-13.04 71.75 -14.14 67.03 -14.1 60.59 C-14.1 59.86 -14.09 59.13 -14.09 58.37 C-14.09 56.04 -14.08 53.71 -14.06 51.38 C-14.06 49.79 -14.05 48.21 -14.05 46.63 C-14.04 42.76 -14.02 38.88 -14 35 C-15.03 35.03 -15.03 35.03 -16.08 35.05 C-16.98 35.07 -17.88 35.08 -18.81 35.1 C-20.15 35.12 -20.15 35.12 -21.51 35.15 C-24 35 -24 35 -27.06 33.44 C-29.63 30.21 -30.07 28.11 -30 24 C-28.29 21.59 -26.96 20.41 -24.25 19.25 C-20.82 18.87 -17.45 18.94 -14 19 C-14.02 18.36 -14.05 17.72 -14.07 17.06 C-14.32 4.86 -14.32 4.86 -10.38 0 C-6.89 -1.47 -3.54 -1.33 0 0 Z " fill="#060505" transform="translate(828,443)"/>
<path d="M0 0 C0.76 -0.02 1.52 -0.03 2.31 -0.05 C5.26 0.43 6.54 1.09 8.56 3.31 C8.95 6.45 8.95 6.45 8.81 10 C8.78 11.18 8.74 12.36 8.7 13.57 C8.63 14.93 8.63 14.93 8.56 16.31 C9.6 16.27 10.64 16.22 11.7 16.17 C13.07 16.13 14.44 16.1 15.81 16.06 C16.84 16.01 16.84 16.01 17.88 15.96 C21.34 15.89 23.2 16.04 26.02 18.14 C28.12 21.1 28.15 22.76 27.56 26.31 C25.07 29.64 22.56 31.27 18.56 32.31 C16.84 32.36 15.11 32.38 13.38 32.36 C12.03 32.35 12.03 32.35 10.65 32.34 C9.62 32.33 9.62 32.33 8.56 32.31 C8.81 36.73 9.09 41.15 9.38 45.56 C9.45 46.82 9.52 48.07 9.59 49.36 C9.67 50.57 9.75 51.77 9.83 53.02 C9.9 54.13 9.97 55.24 10.04 56.38 C10.6 59.55 11.32 61.04 13.56 63.31 C16.22 63.94 16.22 63.94 19.12 63.94 C24.37 64.12 24.37 64.12 26.56 66.31 C27.13 69.37 27.08 72.25 26.56 75.31 C24.21 78.64 22.78 80.05 18.78 80.91 C10.75 81.91 3.28 82.7 -3.75 78.19 C-8.63 72.76 -10.03 67 -9.83 59.88 C-9.82 59.11 -9.82 58.34 -9.81 57.56 C-9.79 55.14 -9.74 52.73 -9.69 50.31 C-9.67 48.66 -9.65 47.01 -9.63 45.36 C-9.59 41.35 -9.52 37.33 -9.44 33.31 C-10.54 33.18 -11.65 33.05 -12.79 32.91 C-16.44 32.31 -16.44 32.31 -18.88 30.75 C-20.8 27.75 -21.08 25.73 -20.89 22.21 C-20.44 20.31 -20.44 20.31 -18.31 17.88 C-15.27 16.22 -12.87 15.63 -9.44 15.31 C-9.48 14.1 -9.52 12.88 -9.56 11.62 C-9.56 8.09 -9.2 5.46 -7.44 2.31 C-4.35 0.26 -3.52 0.02 0 0 Z " fill="#060505" transform="translate(634.4375,444.6875)"/>
<path d="M0 0 C6.24 2.56 10.44 5.76 14 11.5 C16.24 17.81 16.25 25.54 13.56 31.69 C8.95 39.37 2.53 43.36 -6 45.73 C-13.92 47.03 -21.93 46.66 -29.94 46.38 C-30.72 30.7 -31.08 15.07 -30.94 -0.62 C-23.23 -4.48 -7.93 -2.44 0 0 Z " fill="#FBF8EB" transform="translate(537.9375,309.625)"/>
<path d="M0 0 C4.51 4.38 7.14 7.75 7.31 14.12 C7.26 19.61 6.24 23.56 3 28 C-2.15 33.02 -7.18 33.48 -14.17 33.41 C-18.9 32.73 -21.85 30.49 -25 27 C-28.14 21.8 -28.77 16.94 -28 11 C-26.35 5.79 -24.24 2.45 -20 -1 C-12.98 -4.21 -6.69 -3.77 0 0 Z " fill="#F5CE0B" transform="translate(506,480)"/>
<path d="M0 0 C2.99 1.5 5.19 3.18 7 6 C7.33 8.31 7.66 10.62 8 13 C-1.57 13 -11.14 13 -21 13 C-19.87 6.23 -19.87 6.23 -16.62 3.69 C-16.02 3.2 -15.41 2.71 -14.79 2.2 C-10.36 -0.77 -5.12 -0.81 0 0 Z " fill="#ECE9DF" transform="translate(704,474)"/>
<path d="M0 0 C5.94 0 11.88 0 18 0 C18 0.33 18 0.66 18 1 C23.61 1.33 29.22 1.66 35 2 C34.67 2.99 34.34 3.98 34 5 C36.48 5.5 36.48 5.5 39 6 C38.34 6.66 37.68 7.32 37 8 C36.15 7.96 35.31 7.92 34.44 7.88 C31 8 29.77 8.48 26.81 10 C21.53 12.48 16.75 12.97 11 12 C7.82 10.82 5.32 9.49 3 7 C2.01 4.69 1.02 2.38 0 0 Z " fill="#F6F2E8" transform="translate(683,499)"/>
</svg>
