<svg version="1.1" xmlns="http://www.w3.org/2000/svg" width="200" height="200" viewBox="0 0 200 200">
<path d="M0 0 C401.28 0 802.56 0 1216 0 C1216 274.56 1216 549.12 1216 832 C814.72 832 413.44 832 0 832 C0 557.44 0 282.88 0 0 Z " fill="transparent" transform="translate(0,0)"/>

<path d="M0 0 C11.21 9.42 17.82 20.01 19.25 34.75 C20.3 48.57 17.41 60.44 9.25 71.75 C6.81 74.5 6.81 74.5 4.25 76.75 C3.77 77.22 3.3 77.69 2.8 78.17 C-11.2 91.33 -32.17 94.95 -50.7 94.8 C-51.48 94.79 -52.26 94.79 -53.06 94.79 C-54.96 94.78 -56.85 94.76 -58.75 94.75 C-58.74 95.9 -58.74 97.06 -58.73 98.25 C-58.72 102.58 -58.7 106.91 -58.7 111.24 C-58.69 113.1 -58.68 114.97 -58.67 116.83 C-58.55 144.72 -58.55 144.72 -62.06 151.25 C-62.47 152.04 -62.88 152.84 -63.3 153.66 C-65.61 157 -67.92 158.47 -71.75 159.75 C-77.73 160.35 -82.43 159.78 -87.75 156.75 C-93.98 150.87 -95.21 141.84 -95.92 133.66 C-96 132.8 -96.08 131.94 -96.16 131.06 C-97.06 120.45 -97.02 109.83 -96.98 99.19 C-96.98 96.98 -96.98 94.77 -96.98 92.56 C-96.98 87.96 -96.97 83.36 -96.96 78.76 C-96.94 72.93 -96.93 67.09 -96.94 61.25 C-96.94 56.7 -96.93 52.15 -96.92 47.59 C-96.92 45.44 -96.92 43.29 -96.92 41.14 C-96.91 34.34 -96.86 27.55 -96.75 20.75 C-96.74 19.81 -96.72 18.86 -96.71 17.89 C-96.66 15.14 -96.58 12.4 -96.49 9.65 C-96.48 8.84 -96.46 8.03 -96.45 7.19 C-96.23 1.97 -95.18 -1.1 -91.75 -5.25 C-85.33 -9.39 -77.19 -10.32 -69.75 -11.25 C-69.09 -11.34 -68.43 -11.42 -67.75 -11.51 C-45.63 -14.23 -18.68 -13.66 0 0 Z " fill="#020202" transform="translate(140,30)"/>
<path d="M0 0 C4.51 4.38 7.14 7.75 7.31 14.12 C7.26 19.61 6.24 23.56 3 28 C-2.15 33.02 -7.18 33.48 -14.17 33.41 C-18.9 32.73 -21.85 30.49 -25 27 C-28.14 21.8 -28.77 16.94 -28 11 C-26.35 5.79 -24.24 2.45 -20 -1 C-12.98 -4.21 -6.69 -3.77 0 0 Z " fill="#F5CE0B" transform="translate(120,46) scale(1.5)"/>

</svg>
